<?xml version="1.0" encoding="UTF-8"?>
<!DOCTYPE svg PUBLIC "-//W3C//DTD SVG 1.1//EN" "http://www.w3.org/Graphics/SVG/1.1/DTD/svg11.dtd">
<svg xmlns="http://www.w3.org/2000/svg" version="1.1" width="36px" height="36px" style="shape-rendering:geometricPrecision; text-rendering:geometricPrecision; image-rendering:optimizeQuality; fill-rule:evenodd; clip-rule:evenodd" xmlns:xlink="http://www.w3.org/1999/xlink">
<g><path style="opacity:0.663" fill="#000000" d="M 16.5,0.5 C 17.4959,0.414228 18.3292,0.747561 19,1.5C 19.8311,9.33276 22.8311,10.3328 28,4.5C 28.8333,5.33333 29.6667,6.16667 30.5,7C 29.522,8.9751 28.1887,10.6418 26.5,12C 26.6667,12.5 26.8333,13 27,13.5C 29.5185,14.8796 32.0185,16.213 34.5,17.5C 32.0185,18.787 29.5185,20.1204 27,21.5C 26.8333,22 26.6667,22.5 26.5,23C 28.1887,24.3582 29.522,26.0249 30.5,28C 29.6667,28.8333 28.8333,29.6667 28,30.5C 26.0249,29.522 24.3582,28.1887 23,26.5C 22.5,26.6667 22,26.8333 21.5,27C 20.1204,29.5185 18.787,32.0185 17.5,34.5C 16.213,32.0185 14.8796,29.5185 13.5,27C 13,26.8333 12.5,26.6667 12,26.5C 10.6418,28.1887 8.9751,29.522 7,30.5C 6.16667,29.6667 5.33333,28.8333 4.5,28C 5.47796,26.0249 6.81129,24.3582 8.5,23C 8.33333,22.5 8.16667,22 8,21.5C 5.48149,20.1204 2.98149,18.787 0.5,17.5C 2.98149,16.213 5.48149,14.8796 8,13.5C 8.16667,13 8.33333,12.5 8.5,12C 6.81129,10.6418 5.47796,8.9751 4.5,7C 5.33333,6.16667 6.16667,5.33333 7,4.5C 12.8166,10.3507 15.9832,9.01738 16.5,0.5 Z M 18.5,9.5 C 21.9861,10.8828 23.6528,13.5494 23.5,17.5C 23.575,21.1537 22.075,23.8204 19,25.5C 18.5006,20.1771 18.334,14.8437 18.5,9.5 Z"/></g>
</svg>
