<?xml version="1.0" encoding="UTF-8"?>
<!DOCTYPE svg PUBLIC "-//W3C//DTD SVG 1.1//EN" "http://www.w3.org/Graphics/SVG/1.1/DTD/svg11.dtd">
<svg xmlns="http://www.w3.org/2000/svg" version="1.1" width="32px" height="32px" style="shape-rendering:geometricPrecision; text-rendering:geometricPrecision; image-rendering:optimizeQuality; fill-rule:evenodd; clip-rule:evenodd" xmlns:xlink="http://www.w3.org/1999/xlink">
<g><path style="opacity:0.51" fill="#000000" d="M 4.5,-0.5 C 11.8333,-0.5 19.1667,-0.5 26.5,-0.5C 26.5,0.5 26.5,1.5 26.5,2.5C 27.5,2.5 28.5,2.5 29.5,2.5C 27.1134,12.0083 25.4468,21.675 24.5,31.5C 18.5,31.5 12.5,31.5 6.5,31.5C 5.75062,21.9309 4.08395,12.2642 1.5,2.5C 2.5,2.5 3.5,2.5 4.5,2.5C 4.5,1.5 4.5,0.5 4.5,-0.5 Z M 6.5,0.5 C 12.5368,0.170747 18.5368,0.504081 24.5,1.5C 21.5,1.83333 18.5,2.16667 15.5,2.5C 12.0866,2.48303 9.08657,1.81637 6.5,0.5 Z M 3.5,4.5 C 11.5277,4.16897 19.5277,4.5023 27.5,5.5C 23.5,5.83333 19.5,6.16667 15.5,6.5C 11.107,6.4907 7.10703,5.82404 3.5,4.5 Z M 5.5,8.5 C 12.1667,8.5 18.8333,8.5 25.5,8.5C 25.67,9.82207 25.3366,10.9887 24.5,12C 18.5,12.6667 12.5,12.6667 6.5,12C 5.66337,10.9887 5.33003,9.82207 5.5,8.5 Z M 6.5,14.5 C 7.87344,14.3433 9.20677,14.51 10.5,15C 9.44636,16.3876 9.27969,17.8876 10,19.5C 11.5,21 13,22.5 14.5,24C 12.1902,24.4966 9.85684,24.6633 7.5,24.5C 6.79287,21.2139 6.45954,17.8806 6.5,14.5 Z M 20.5,15.5 C 21.5676,14.5655 22.901,14.2322 24.5,14.5C 24.5405,17.8806 24.2071,21.2139 23.5,24.5C 19.5,25.1667 19.5,25.8333 23.5,26.5C 23.67,27.8221 23.3366,28.9887 22.5,30C 17.8333,30.6667 13.1667,30.6667 8.5,30C 7.66337,28.9887 7.33003,27.8221 7.5,26.5C 11.5546,26.8242 15.5546,26.4909 19.5,25.5C 18.624,24.7492 17.624,24.2492 16.5,24C 18,22.5 19.5,21 21,19.5C 21.765,17.9343 21.5983,16.6009 20.5,15.5 Z M 11.5,16.5 C 14.2241,17.3946 16.8908,17.728 19.5,17.5C 16.2102,22.8653 13.5435,22.532 11.5,16.5 Z"/></g>
</svg>
