<?xml version="1.0" encoding="UTF-8"?>
<!DOCTYPE svg PUBLIC "-//W3C//DTD SVG 1.1//EN" "http://www.w3.org/Graphics/SVG/1.1/DTD/svg11.dtd">
<svg xmlns="http://www.w3.org/2000/svg" version="1.1" width="32px" height="32px" style="shape-rendering:geometricPrecision; text-rendering:geometricPrecision; image-rendering:optimizeQuality; fill-rule:evenodd; clip-rule:evenodd" xmlns:xlink="http://www.w3.org/1999/xlink">
<g><path style="opacity:0.784" fill="#000000" d="M 3.5,-0.5 C 11.5,-0.5 19.5,-0.5 27.5,-0.5C 27.5,10.1667 27.5,20.8333 27.5,31.5C 25.8333,31.5 24.1667,31.5 22.5,31.5C 20.5211,28.8544 18.1878,26.5211 15.5,24.5C 12.8122,26.5211 10.4789,28.8544 8.5,31.5C 6.83333,31.5 5.16667,31.5 3.5,31.5C 3.5,20.8333 3.5,10.1667 3.5,-0.5 Z M 6.5,1.5 C 12.7576,1.19031 18.9242,1.52364 25,2.5C 25.6667,11.1667 25.6667,19.8333 25,28.5C 22.4771,25.1231 19.3104,22.7898 15.5,21.5C 11.6896,22.7898 8.5229,25.1231 6,28.5C 5.19648,19.4221 5.36315,10.4221 6.5,1.5 Z"/></g>
</svg>
