<?xml version="1.0" encoding="UTF-8"?>
<!DOCTYPE svg PUBLIC "-//W3C//DTD SVG 1.1//EN" "http://www.w3.org/Graphics/SVG/1.1/DTD/svg11.dtd">
<svg xmlns="http://www.w3.org/2000/svg" version="1.1" width="35px" height="36px" style="shape-rendering:geometricPrecision; text-rendering:geometricPrecision; image-rendering:optimizeQuality; fill-rule:evenodd; clip-rule:evenodd" xmlns:xlink="http://www.w3.org/1999/xlink">
<g><path style="opacity:0.621" fill="#000000" d="M 10.5,-0.5 C 14.8333,-0.5 19.1667,-0.5 23.5,-0.5C 27.7908,2.12309 31.4575,5.45643 34.5,9.5C 34.5,14.8333 34.5,20.1667 34.5,25.5C 31.7826,29.8844 28.1159,33.2177 23.5,35.5C 19.1667,35.5 14.8333,35.5 10.5,35.5C 5.88411,33.2177 2.21744,29.8844 -0.5,25.5C -0.5,20.1667 -0.5,14.8333 -0.5,9.5C 2.54252,5.45643 6.20918,2.12309 10.5,-0.5 Z M 12.5,2.5 C 17.1209,1.99268 21.4542,2.82601 25.5,5C 19.8333,7 14.1667,7 8.5,5C 10.0664,4.3918 11.3998,3.55847 12.5,2.5 Z M 5.5,7.5 C 6.12395,7.91695 6.45728,8.58362 6.5,9.5C 3.99957,13.9239 3.99957,18.2573 6.5,22.5C 5.47827,23.354 4.64494,24.354 4,25.5C 0.589146,19.1542 1.08915,13.1542 5.5,7.5 Z M 27.5,7.5 C 32.8073,12.7665 33.6407,18.7665 30,25.5C 27.961,27.8745 25.6277,29.8745 23,31.5C 22.1923,29.4213 22.359,27.4213 23.5,25.5C 26.1334,24.6994 27.9667,23.0327 29,20.5C 29.5747,16.0262 29.0747,11.6929 27.5,7.5 Z M 9.5,9.5 C 14.1681,10.773 18.8347,10.773 23.5,9.5C 27.9867,16.8817 25.9867,21.8817 17.5,24.5C 19.2289,26.8511 19.8956,29.5178 19.5,32.5C 17.8333,32.5 16.1667,32.5 14.5,32.5C 14.1044,29.5178 14.7711,26.8511 16.5,24.5C 14.7105,23.1228 12.7105,22.1228 10.5,21.5C 9.37596,20.086 8.37596,18.586 7.5,17C 8.86721,14.6985 9.53388,12.1985 9.5,9.5 Z"/></g>
</svg>
