<?xml version="1.0" encoding="UTF-8"?>
<!DOCTYPE svg PUBLIC "-//W3C//DTD SVG 1.1//EN" "http://www.w3.org/Graphics/SVG/1.1/DTD/svg11.dtd">
<svg xmlns="http://www.w3.org/2000/svg" version="1.1" width="32px" height="32px" style="shape-rendering:geometricPrecision; text-rendering:geometricPrecision; image-rendering:optimizeQuality; fill-rule:evenodd; clip-rule:evenodd" xmlns:xlink="http://www.w3.org/1999/xlink">
<g><path style="opacity:0.523" fill="#000000" d="M -0.5,-0.5 C 10.1667,-0.5 20.8333,-0.5 31.5,-0.5C 31.5,7.16667 31.5,14.8333 31.5,22.5C 22.1667,22.5 12.8333,22.5 3.5,22.5C 3.5,25.5 3.5,28.5 3.5,31.5C 2.83333,31.5 2.16667,31.5 1.5,31.5C 1.16667,-9.83333 0.833333,-9.83333 0.5,31.5C 0.166667,31.5 -0.166667,31.5 -0.5,31.5C -0.5,20.8333 -0.5,10.1667 -0.5,-0.5 Z M 11.5,8.5 C 11.1667,8.5 10.8333,8.5 10.5,8.5C 10.38,7.41383 9.71335,6.74716 8.5,6.5C 7.28665,6.74716 6.61998,7.41383 6.5,8.5C 6.16667,8.5 5.83333,8.5 5.5,8.5C 5.09616,7.24356 4.42949,6.0769 3.5,5C 5.84696,3.41919 5.84696,2.08586 3.5,1C 7.5,0.333333 11.5,0.333333 15.5,1C 10.203,2.13419 10.203,2.96752 15.5,3.5C 15.5,4.5 15.5,5.5 15.5,6.5C 13.5168,6.15684 12.1834,6.82351 11.5,8.5 Z M 17.5,0.5 C 21.8461,0.334316 26.1794,0.500982 30.5,1C 28.3706,2.10328 26.0373,2.60328 23.5,2.5C 21.0478,2.46093 19.0478,1.79426 17.5,0.5 Z M 5.5,8.5 C 5.38929,9.11742 5.05596,9.61742 4.5,10C 6.16667,10.1667 7.83333,10.3333 9.5,10.5C 11.6413,10.3868 13.4747,9.72012 15,8.5C 15.4828,9.44802 15.6495,10.448 15.5,11.5C 11.5,11.5 7.5,11.5 3.5,11.5C 3.28519,9.82124 3.95186,8.82124 5.5,8.5 Z"/></g>
<g><path style="opacity:0.25" fill="#000000" d="M 6.5,1.5 C 7.97782,1.23798 9.31116,1.57131 10.5,2.5C 9.83333,2.83333 9.16667,3.16667 8.5,3.5C 7.28665,3.25284 6.61998,2.58617 6.5,1.5 Z"/></g>
</svg>
