<?xml version="1.0" encoding="UTF-8"?>
<!DOCTYPE svg PUBLIC "-//W3C//DTD SVG 1.1//EN" "http://www.w3.org/Graphics/SVG/1.1/DTD/svg11.dtd">
<svg xmlns="http://www.w3.org/2000/svg" version="1.1" width="32px" height="32px" style="shape-rendering:geometricPrecision; text-rendering:geometricPrecision; image-rendering:optimizeQuality; fill-rule:evenodd; clip-rule:evenodd" xmlns:xlink="http://www.w3.org/1999/xlink">
<g><path style="opacity:0.553" fill="#000000" d="M 31.5,4.5 C 31.5,12.5 31.5,20.5 31.5,28.5C 30.7109,28.7828 30.0442,29.2828 29.5,30C 20.1667,30.6667 10.8333,30.6667 1.5,30C 0.955796,29.2828 0.28913,28.7828 -0.5,28.5C -0.5,19.5 -0.5,10.5 -0.5,1.5C 8.75573,0.362038 18.0891,0.195371 27.5,1C 28.3366,2.01127 28.67,3.17793 28.5,4.5C 29.5,4.5 30.5,4.5 31.5,4.5 Z M 1.5,3.5 C 9.5,3.5 17.5,3.5 25.5,3.5C 25.1996,11.2233 25.5329,18.8899 26.5,26.5C 18.2745,27.8146 10.1078,27.8146 2,26.5C 1.50031,18.8406 1.33365,11.1739 1.5,3.5 Z M 5.5,11.5 C 7.16667,11.5 8.83333,11.5 10.5,11.5C 10.5,13.1667 10.5,14.8333 10.5,16.5C 8.83333,16.5 7.16667,16.5 5.5,16.5C 5.5,14.8333 5.5,13.1667 5.5,11.5 Z"/></g>
<g><path style="opacity:0.68" fill="#000000" d="M 3.5,5.5 C 10.5079,5.33371 17.5079,5.50038 24.5,6C 21.0155,7.13234 17.3489,7.63234 13.5,7.5C 9.76138,7.48638 6.42805,6.81972 3.5,5.5 Z"/></g>
<g><path style="opacity:0.565" fill="#000000" d="M 3.5,8.5 C 6.51838,8.33537 9.51838,8.50204 12.5,9C 13.4505,12.0567 13.7839,15.2234 13.5,18.5C 10.1667,18.5 6.83333,18.5 3.5,18.5C 3.5,15.1667 3.5,11.8333 3.5,8.5 Z M 5.5,11.5 C 5.5,13.1667 5.5,14.8333 5.5,16.5C 7.16667,16.5 8.83333,16.5 10.5,16.5C 10.5,14.8333 10.5,13.1667 10.5,11.5C 8.83333,11.5 7.16667,11.5 5.5,11.5 Z"/></g>
<g><path style="opacity:0.432" fill="#000000" d="M 14.5,8.5 C 18.0479,8.09491 21.3812,8.59491 24.5,10C 21.3812,11.4051 18.0479,11.9051 14.5,11.5C 14.5,10.5 14.5,9.5 14.5,8.5 Z"/></g>
<g><path style="opacity:0.635" fill="#000000" d="M 14.5,12.5 C 18.0479,12.0949 21.3812,12.5949 24.5,14C 22.8333,14.1667 21.1667,14.3333 19.5,14.5C 17.3603,14.4439 15.6936,13.7773 14.5,12.5 Z"/></g>
<g><path style="opacity:0.633" fill="#000000" d="M 14.5,16.5 C 17.8499,16.335 21.1832,16.5017 24.5,17C 22.884,18.0771 21.0507,18.5771 19,18.5C 17.0145,18.4313 15.5145,17.7647 14.5,16.5 Z"/></g>
<g><path style="opacity:0.433" fill="#000000" d="M 3.5,19.5 C 7.04786,19.0949 10.3812,19.5949 13.5,21C 10.3812,22.4051 7.04786,22.9051 3.5,22.5C 3.5,21.5 3.5,20.5 3.5,19.5 Z"/></g>
<g><path style="opacity:0.433" fill="#000000" d="M 14.5,19.5 C 18.0479,19.0949 21.3812,19.5949 24.5,21C 21.3812,22.4051 18.0479,22.9051 14.5,22.5C 14.5,21.5 14.5,20.5 14.5,19.5 Z"/></g>
<g><path style="opacity:0.603" fill="#000000" d="M 3.5,23.5 C 6.89838,23.1796 10.2317,23.513 13.5,24.5C 11.8333,24.8333 10.1667,25.1667 8.5,25.5C 6.3603,25.4439 4.69363,24.7773 3.5,23.5 Z"/></g>
<g><path style="opacity:0.635" fill="#000000" d="M 14.5,23.5 C 18.0479,23.0949 21.3812,23.5949 24.5,25C 22.8333,25.1667 21.1667,25.3333 19.5,25.5C 17.3603,25.4439 15.6936,24.7773 14.5,23.5 Z"/></g>
</svg>
