<?xml version="1.0" encoding="UTF-8"?>
<!DOCTYPE svg PUBLIC "-//W3C//DTD SVG 1.1//EN" "http://www.w3.org/Graphics/SVG/1.1/DTD/svg11.dtd">
<svg xmlns="http://www.w3.org/2000/svg" version="1.1" width="32px" height="33px" style="shape-rendering:geometricPrecision; text-rendering:geometricPrecision; image-rendering:optimizeQuality; fill-rule:evenodd; clip-rule:evenodd" xmlns:xlink="http://www.w3.org/1999/xlink">
<g><path style="opacity:0.634" fill="#000000" d="M 10.5,-0.5 C 13.8333,-0.5 17.1667,-0.5 20.5,-0.5C 23.0744,0.880961 25.5744,2.54763 28,4.5C 28.5334,2.06143 29.7,1.39477 31.5,2.5C 31.5,5.16667 31.5,7.83333 31.5,10.5C 28.8231,12.432 25.8231,12.932 22.5,12C 21.3543,9.44285 22.3543,8.10952 25.5,8C 18.5246,1.89199 11.6912,2.05866 5,8.5C 0.297852,20.5823 4.46452,27.4156 17.5,29C 18.0779,30.417 19.0779,31.2504 20.5,31.5C 20.5,31.8333 20.5,32.1667 20.5,32.5C 17.1667,32.5 13.8333,32.5 10.5,32.5C 5.58321,30.5851 1.91654,27.2517 -0.5,22.5C -0.5,18.1667 -0.5,13.8333 -0.5,9.5C 1.91654,4.74828 5.58321,1.41495 10.5,-0.5 Z"/></g>
<g><path style="opacity:0.574" fill="#000000" d="M 13.5,4.5 C 14.8333,4.5 16.1667,4.5 17.5,4.5C 17.6657,8.84611 17.499,13.1794 17,17.5C 14.9806,20.7118 12.1473,22.3784 8.5,22.5C 8.91795,19.5611 10.418,17.2278 13,15.5C 13.4986,11.8484 13.6653,8.18174 13.5,4.5 Z"/></g>
<g><path style="opacity:0.496" fill="#000000" d="M 31.5,17.5 C 31.5,18.8333 31.5,20.1667 31.5,21.5C 30.609,22.1098 29.609,22.4431 28.5,22.5C 27.1506,19.5398 28.1506,17.8731 31.5,17.5 Z"/></g>
<g><path style="opacity:0.4" fill="#000000" d="M 28.5,22.5 C 30.2683,26.4109 28.935,28.0776 24.5,27.5C 24.3692,24.6333 25.7026,22.9666 28.5,22.5 Z"/></g>
<g><path style="opacity:0.415" fill="#000000" d="M 24.5,27.5 C 24.8333,30.5 23.5,31.8333 20.5,31.5C 19.5,27.8333 20.8333,26.5 24.5,27.5 Z"/></g>
</svg>
